<?xml version="1.0" encoding="iso-8859-1"?>
<!-- Generator: Adobe Illustrator 19.1.1, SVG Export Plug-In . SVG Version: 6.00 Build 0)  -->
<svg xmlns="http://www.w3.org/2000/svg" xmlns:xlink="http://www.w3.org/1999/xlink" version="1.1" id="Layer_1" x="0px" y="0px" viewBox="0 0 50 50" style="enable-background:new 0 0 50 50;" xml:space="preserve" width="500px" height="500px">
<path style="fill:none;stroke:#000000;stroke-width:2;stroke-miterlimit:10;" d="M5.001,45h36.488c1.453,0,2.698-1.042,2.953-2.473  L49,17c0-1.104-0.896-2-2-2H10c-1.104,0-2,0.896-2,2L3.032,42.648C2.813,43.874,3.755,45,5.001,45z"/>
<path style="fill:none;stroke:#000000;stroke-width:2;stroke-miterlimit:10;" d="M44,12v-1c0-1.105-0.895-2-2-2H18  c-1.469,0-2.484-4-4-4H5C3.895,5,3,5.895,3,7v36"/>
</svg>
